<svg width="450" height="59" viewBox="0 0 450 59" fill="none" xmlns="http://www.w3.org/2000/svg">
  <mask id="mask0_239_26564" style="mask-type:luminance" maskUnits="userSpaceOnUse" x="145" y="0"
    width="305" height="59">
    <path d="M450 0H145V59H450V0Z" fill="white" />
  </mask>
  <g mask="url(#mask0_239_26564)">
    <path fill-rule="evenodd" clip-rule="evenodd"
      d="M179.925 6.80091C184.251 11.1881 186.578 16.9871 186.486 23.1277V23.1201C186.296 35.4847 175.888 45.5419 163.291 45.5419H145.593C145.258 45.5419 145.091 45.1396 145.327 44.8967L153.94 36.2514C154.085 36.1072 154.275 36.0236 154.48 36.0236H163.459C170.681 36.0236 176.732 30.255 176.945 23.1733C177.052 19.5603 175.721 16.1446 173.197 13.5487C170.673 10.9528 167.29 9.52584 163.679 9.52584H154.541V24.2662C154.541 24.3953 154.442 24.4939 154.313 24.4939H145.228C145.099 24.4939 145 24.3953 145 24.2662V0.2277C145 0.0986648 145.099 0 145.228 0H163.679C169.829 0 175.6 2.41372 179.925 6.80091ZM205.865 12.2127C194.735 12.2127 189.657 20.7291 189.657 29.048L189.649 29.0556C189.649 37.3139 195.381 46.02 206.511 46.02C214.478 46.02 220.667 41.5874 222.08 34.6649C222.111 34.5207 221.997 34.384 221.852 34.384H213.452C213.353 34.384 213.269 34.4523 213.239 34.551C212.471 37.238 210.084 38.6119 206.511 38.6119C201.957 38.6119 199.03 35.7503 198.376 31.1354H221.731C221.852 31.1354 221.951 31.0519 221.959 30.9304C222.02 30.2321 222.073 29.3289 222.073 28.2055C222.073 20.7291 216.994 12.2127 205.865 12.2127ZM205.865 18.8391C210.228 18.8391 212.768 21.7613 213.026 25.4047H198.505C199.288 20.8505 201.767 18.8391 205.865 18.8391ZM226.042 29.048C226.042 20.7291 231.12 12.2127 242.25 12.2127C253.379 12.2127 258.458 20.7291 258.458 28.2055C258.458 29.3289 258.405 30.2321 258.344 30.9304C258.336 31.0519 258.237 31.1354 258.116 31.1354H234.761C235.415 35.7503 238.342 38.6119 242.896 38.6119C246.469 38.6119 248.856 37.238 249.624 34.551C249.654 34.4523 249.738 34.384 249.837 34.384H258.237C258.382 34.384 258.496 34.5207 258.466 34.6649C257.052 41.5874 250.863 46.02 242.896 46.02C231.766 46.02 226.034 37.3139 226.034 29.0556L226.042 29.048ZM249.411 25.4047C249.153 21.7613 246.613 18.8391 242.25 18.8391C238.152 18.8391 235.673 20.8505 234.891 25.4047H249.411ZM272.317 12.7364H263.727V12.7212C263.597 12.7212 263.498 12.8199 263.498 12.949V58.5135C263.498 58.6426 263.597 58.7415 263.727 58.7415H272.317C272.446 58.7415 272.545 58.6426 272.545 58.5135V42.5588C274.301 44.7677 277.494 46.0048 281.204 46.0048C290.646 46.0048 297.025 39.31 297.025 29.1088C297.025 18.9074 291.163 12.2127 281.919 12.2127C277.685 12.2127 274.499 13.7763 272.545 16.3115V12.9641C272.545 12.8351 272.446 12.7364 272.317 12.7364ZM288.039 29.1163C288.039 34.5738 284.854 38.2172 280.033 38.2172C275.221 38.2172 272.028 34.6345 272.028 29.1163C272.028 23.5982 275.221 19.9548 280.033 19.9548C284.846 19.9548 288.039 23.6589 288.039 29.1163ZM310.253 51.8876C310.397 51.7434 310.588 51.6672 310.793 51.6672H320.022C322.82 51.6672 324.773 49.4587 324.773 46.468V42.1797C323.078 44.5857 319.627 46.0128 315.787 46.0128C306.087 46.0128 300.294 39.318 300.294 29.1165C300.294 18.9151 306.087 12.2205 315.658 12.2205C319.695 12.2205 322.881 13.7158 324.773 15.9929V12.9719C324.773 12.8429 324.872 12.7442 325.001 12.7442H333.592C333.721 12.7442 333.821 12.8429 333.821 12.9719V47.4547C333.821 54.2176 328.94 58.7644 321.52 58.7644H304.316C303.974 58.7644 303.806 58.3544 304.049 58.1192L310.253 51.9029V51.8876ZM317.224 38.2099C322.173 38.2099 325.298 34.6347 325.298 29.109C325.298 23.5832 322.173 19.9474 317.224 19.9474C312.275 19.9474 309.219 23.5908 309.219 29.109C309.219 34.6271 312.412 38.2099 317.224 38.2099ZM349.535 45.261V29.5643H349.542C349.542 23.9703 351.557 20.2662 356.05 20.2662H361.227C361.356 20.2662 361.455 20.1675 361.455 20.0385V12.9567C361.455 12.8277 361.356 12.729 361.227 12.729H357.806C353.769 12.729 351.291 14.0876 349.535 18.1864V12.9567C349.535 12.8277 349.436 12.729 349.307 12.729H340.716C340.587 12.729 340.488 12.8277 340.488 12.9567V45.261C340.488 45.39 340.587 45.489 340.716 45.489H349.307C349.436 45.489 349.535 45.39 349.535 45.261ZM364.351 36.1983C364.351 29.7617 369.172 25.8603 376.394 25.8603H381.86C383.487 25.8603 384.331 24.8204 384.331 23.4542C384.331 20.7216 382.248 18.8393 378.538 18.8393C374.828 18.8393 372.593 21.1847 372.425 23.8261C372.425 23.9475 372.326 24.0386 372.205 24.0386H364.595C364.458 24.0386 364.351 23.9248 364.359 23.7882C364.808 17.3364 370.122 12.2053 378.994 12.2053C387.326 12.2053 393.378 17.0176 393.378 24.4257V45.2534C393.378 45.3824 393.279 45.4814 393.15 45.4814H384.559C384.43 45.4814 384.331 45.3824 384.331 45.2534V40.9346C383.221 43.9858 379.579 46.0052 375.086 46.0052C368.769 46.0052 364.344 41.7773 364.344 36.1907L364.351 36.1983ZM377.435 39.447C381.799 39.447 384.338 36.1983 384.338 32.0388V31.5834H377.762C374.965 31.5834 373.071 33.276 373.071 35.8112C373.071 37.9593 374.896 39.4546 377.435 39.4546V39.447ZM407.716 12.7364H399.125L399.14 12.7289C399.011 12.7289 398.912 12.8276 398.912 12.9566V45.261C398.912 45.39 399.011 45.4886 399.14 45.4886H407.731C407.86 45.4886 407.959 45.39 407.959 45.261V26.9C407.959 22.6722 410.361 19.8789 414.14 19.8789C417.652 19.8789 419.933 22.6722 419.933 26.9V45.261C419.933 45.39 420.031 45.4886 420.161 45.4886H428.751C428.881 45.4886 428.979 45.39 428.979 45.261V26.9C428.979 22.6722 431.382 19.8789 435.16 19.8789C438.672 19.8789 440.953 22.6722 440.953 26.9V45.261C440.953 45.39 441.052 45.4886 441.181 45.4886H449.772C449.901 45.4886 450 45.39 450 45.261V24.0384C450 17.4804 445.378 12.2127 438.285 12.2127C433.016 12.2127 428.911 15.0059 427.284 18.1939C425.718 14.2925 422.396 12.2127 417.257 12.2127C412.824 12.2127 409.7 14.3608 407.944 17.3514V12.9641C407.944 12.8351 407.845 12.7364 407.716 12.7364Z"
      fill="white" />
  </g>
  <path
    d="M14.472 40H2.952V14.8H14.112C18.972 14.8 21.852 17.716 21.852 21.316C21.852 24.376 20.052 26.5 17.604 27.22C20.232 27.76 22.392 29.884 22.392 33.304C22.392 37.084 19.152 40 14.472 40ZM7.812 19.12V25.132H13.392C15.732 25.132 16.992 24.088 16.992 22.108C16.992 20.128 15.732 19.12 13.392 19.12H7.812ZM7.812 29.308V35.68H13.752C16.092 35.68 17.532 34.636 17.532 32.476C17.532 30.316 16.092 29.308 13.752 29.308H7.812ZM32.3277 40.36C28.1157 40.36 26.2437 37.48 26.2437 33.52V22H30.9237V32.98C30.9237 35.32 31.8957 36.58 33.5877 36.58H33.8757C35.9277 36.58 37.5837 34.528 37.5837 32.008V22H42.2637V40H37.5837V37.372C36.5037 39.172 34.5957 40.36 32.3277 40.36ZM51.9556 19.66H46.9156V14.8H51.9556V19.66ZM51.7756 40H47.0956V22H51.7756V40ZM61.2678 40H56.5878V14.8H61.2678V40ZM77.24 40H72.668C69.608 40 67.988 38.38 67.988 35.32V25.78H64.28V22H67.988V16.168H72.668V22H76.7V25.78H72.668V34.06C72.668 35.68 73.028 36.04 74.648 36.04H77.24V40ZM99.0416 40.36C96.5216 40.36 94.5776 38.92 93.8576 37.66V40H89.1776V14.8H93.8576V24.34C94.5776 23.08 96.5216 21.64 99.0416 21.64C104.262 21.64 107.034 26.14 107.034 31C107.034 35.86 104.262 40.36 99.0416 40.36ZM97.9616 36.58H98.2496C100.59 36.58 102.354 34.384 102.354 30.964C102.354 27.544 100.59 25.42 98.2496 25.42H97.9616C95.8016 25.42 93.8576 27.58 93.8576 31C93.8576 34.42 95.8016 36.58 97.9616 36.58ZM123.018 22H128.202L120.534 38.416V42.592C120.534 45.652 118.914 47.272 115.854 47.272H109.302V43.24H114.09C115.71 43.24 116.07 42.88 116.07 41.26V38.596L108.222 22H113.478L118.338 32.944L123.018 22Z"
    fill="#BBBBBF" />
</svg>